HIERARCHY
ROOT Hips
{
    OFFSET 0.000000 0.000000 0.000000
    CHANNELS 6 Xposition Yposition Zposition Zrotation Xrotation Yrotation
    JOINT Spine
    {
        OFFSET -0.000000 7.236184 0.000000
        CHANNELS 3 Zrotation Xrotation Yrotation
        JOINT Spine1
        {
            OFFSET -0.000000 20.420147 0.000000
            CHANNELS 3 Zrotation Xrotation Yrotation
            JOINT Neck
            {
                OFFSET -0.000000 20.336288 1.848754
                CHANNELS 3 Zrotation Xrotation Yrotation
                JOINT Head
                {
                    OFFSET -0.000000 12.354461 -1.764923
                    CHANNELS 3 Zrotation Xrotation Yrotation
                    End Site
                    {
                        OFFSET -0.000000 22.061537 0.000000
                    }
                }
            }
            JOINT LeftShoulder
            {
                OFFSET 3.573296 18.396038 -0.314103
                CHANNELS 3 Zrotation Xrotation Yrotation
                JOINT LeftArm
                {
                    OFFSET 10.880760 0.000000 0.000000
                    CHANNELS 3 Zrotation Xrotation Yrotation
                    JOINT LeftForeArm
                    {
                        OFFSET 27.185530 0.000000 0.000000
                        CHANNELS 3 Zrotation Xrotation Yrotation
                        JOINT LeftHand
                        {
                            OFFSET 27.825975 0.000000 0.000000
                            CHANNELS 3 Zrotation Xrotation Yrotation
                            End Site
                            {
                                OFFSET 13.236923 0.000000 0.000000
                            }
                        }
                    }
                }
            }
            JOINT RightShoulder
            {
                OFFSET -3.474926 18.396038 -0.314103
                CHANNELS 3 Zrotation Xrotation Yrotation
                JOINT RightArm
                {
                    OFFSET -10.880760 0.000000 0.000000
                    CHANNELS 3 Zrotation Xrotation Yrotation
                    JOINT RightForeArm
                    {
                        OFFSET -27.185530 0.000000 0.000000
                        CHANNELS 3 Zrotation Xrotation Yrotation
                        JOINT RightHand
                        {
                            OFFSET -27.825975 0.000000 0.000000
                            CHANNELS 3 Zrotation Xrotation Yrotation
                            End Site
                            {
                                OFFSET -13.236923 0.000000 0.000000
                            }
                        }
                    }
                }
            }
        }
    }
    JOINT LeftUpLeg
    {
        OFFSET 8.824615 0.000000 0.000000
        CHANNELS 3 Zrotation Xrotation Yrotation
        JOINT LeftLeg
        {
            OFFSET -0.000000 -35.111282 0.000000
            CHANNELS 3 Zrotation Xrotation Yrotation
            JOINT LeftFoot
            {
                OFFSET -0.000000 -42.324711 0.000000
                CHANNELS 3 Zrotation Xrotation Yrotation
                JOINT LeftToeBase
                {
                    OFFSET -0.000000 -5.735999 13.236923
                    CHANNELS 3 Zrotation Xrotation Yrotation
                    End Site
                    {
                        OFFSET -0.000000 0.000000 3.529846
                    }
                }
            }
        }
    }
    JOINT RightUpLeg
    {
        OFFSET -8.824615 0.000000 0.000000
        CHANNELS 3 Zrotation Xrotation Yrotation
        JOINT RightLeg
        {
            OFFSET -0.000000 -35.111282 0.000000
            CHANNELS 3 Zrotation Xrotation Yrotation
            JOINT RightFoot
            {
                OFFSET -0.000000 -42.324711 0.000000
                CHANNELS 3 Zrotation Xrotation Yrotation
                JOINT RightToeBase
                {
                    OFFSET -0.000000 -5.735999 13.236923
                    CHANNELS 3 Zrotation Xrotation Yrotation
                    End Site
                    {
                        OFFSET -0.000000 0.000000 3.529846
                    }
                }
            }
        }
    }
}
MOTION
Frames:    4
Frame Time:    0.008333
9.761230    80.323029    107.797333    -2.176339    -6.642863    -167.712006    -3.933619    -12.748211    -0.531853    -0.308418    6.389705    -0.075697    2.604912    8.370386    -1.634635    3.017336    -3.114830    -1.381046    1.683150    17.923550    -2.046859    -41.685188    47.496727    -44.797668    -1.252749    -3.138270    -17.470388    20.303436    -3.018502    1.744843    7.297000    17.948961    -7.957438    38.828175    47.848400    40.885078    -0.453212    -7.706378    17.193325    -16.690050    -6.934865    -4.832871    2.212365    -11.848051    2.398314    -2.091165    15.903290    5.821337    -3.158330    -9.394352    -7.379878    -1.031513    1.805255    1.139739    -8.474598    -0.890291    3.373655    5.157036    4.733450    7.315789    -1.544819    -7.288998    -15.937116    -1.581424    0.266973    1.709792    
9.785666    80.322800    107.796440    -2.171740    -6.654499    -167.694641    -3.936136    -12.739830    -0.534974    -0.303921    6.386663    -0.078177    2.604709    8.370404    -1.637689    3.019844    -3.122828    -1.383562    1.683586    17.916710    -2.054284    -41.675529    47.502529    -44.799484    -1.249077    -3.129836    -17.468498    20.332090    -3.005653    1.763603    7.295151    17.948326    -7.955014    38.839420    47.842857    40.864521    -0.449886    -7.718801    17.215231    -16.730925    -6.943731    -4.848217    2.228968    -11.864498    2.293389    -2.118536    15.894040    5.956721    -3.208347    -9.385828    -7.377311    -0.933950    1.848660    1.031861    -8.453673    -0.901640    3.354688    5.154916    4.734513    7.320001    -1.555018    -7.291675    -15.941740    -1.539211    0.222963    1.664254    
9.809397    80.322571    107.795647    -2.167157    -6.665813    -167.677704    -3.938605    -12.731933    -0.537006    -0.299430    6.383999    -0.081419    2.604431    8.370000    -1.640602    3.022344    -3.130291    -1.385944    1.683858    17.909750    -2.061400    -41.666336    47.508263    -44.800949    -1.245598    -3.121654    -17.466894    20.359299    -2.993366    1.780984    7.293488    17.947363    -7.952488    38.851299    47.837574    40.843502    -0.446344    -7.730836    17.236208    -16.770153    -6.952363    -4.863226    2.245260    -11.881272    2.195722    -2.143954    15.886680    6.083194    -3.254765    -9.377659    -7.376397    -0.844127    1.888425    0.932559    -8.433375    -0.912667    3.336535    5.153037    4.735530    7.324366    -1.565220    -7.294062    -15.946791    -1.503820    0.186577    1.626068    
9.833079    80.322311    107.794975    -2.162313    -6.676936    -167.660629    -3.941011    -12.724152    -0.539475    -0.295008    6.381848    -0.083908    2.604114    8.369364    -1.643376    3.024859    -3.137815    -1.388258    1.684240    17.902643    -2.068543    -41.657429    47.513836    -44.802330    -1.241928    -3.113626    -17.465729    20.384836    -2.981500    1.796825    7.291919    17.946678    -7.949906    38.863308    47.832371    40.822464    -0.442205    -7.743186    17.256992    -16.808107    -6.961395    -4.878467    2.261806    -11.899310    2.105849    -2.167190    15.882141    6.200658    -3.297447    -9.369626    -7.378410    -0.763057    1.923548    0.842945    -8.413075    -0.923470    3.318799    5.151611    4.736122    7.328945    -1.575985    -7.295729    -15.952491    -1.478021    0.161000    1.598228    
